<?xml version="1.0" encoding="utf-8"?>
<!-- Generator: Adobe Illustrator 24.0.1, SVG Export Plug-In . SVG Version: 6.00 Build 0)  -->
<svg version="1.1" id="Layer_1" xmlns="http://www.w3.org/2000/svg" xmlns:xlink="http://www.w3.org/1999/xlink" x="0px" y="0px"
	 viewBox="0 0 500 500" style="enable-background:new 0 0 500 500;" xml:space="preserve">
<style type="text/css">
	.st0{fill:#FFFFFF;}
</style>
<path class="st0" d="M0,0v500h500V0H0z M217.1,100.04c1.67-3.89,3.97-7.35,6.91-10.37c2.94-3.02,6.4-5.36,10.37-7.03
	c3.97-1.67,8.26-2.5,12.87-2.5c4.61,0,8.9,0.83,12.87,2.5c3.97,1.67,7.43,4.02,10.37,7.03c2.94,3.02,5.24,6.48,6.91,10.37
	c1.67,3.9,2.5,8.15,2.5,12.76c0,4.45-0.83,8.66-2.5,12.64c-1.67,3.97-3.97,7.47-6.91,10.49c-2.94,3.02-6.4,5.37-10.37,7.03
	c-3.98,1.67-8.27,2.5-12.87,2.5c-4.61,0-8.9-0.83-12.87-2.5c-3.97-1.67-7.43-4.01-10.37-7.03c-2.94-3.02-5.24-6.51-6.91-10.49
	c-1.67-3.97-2.5-8.19-2.5-12.64C214.6,108.19,215.43,103.93,217.1,100.04z M345.96,419.87H154.04V385.3h78.68V214.83h-70.81V180.5
	h112.77v204.8h71.28V419.87z"/>
</svg>
