<?xml version="1.0" encoding="utf-8"?>
<!-- Generator: Adobe Illustrator 24.0.1, SVG Export Plug-In . SVG Version: 6.00 Build 0)  -->
<svg version="1.1" id="Layer_1" xmlns="http://www.w3.org/2000/svg" xmlns:xlink="http://www.w3.org/1999/xlink" x="0px" y="0px"
	 viewBox="0 0 500 500" style="enable-background:new 0 0 500 500;" xml:space="preserve">
<style type="text/css">
	.st0{fill:#FFFFFF;}
</style>
<path class="st0" d="M0,0v500h500V0H0z M452.24,369.65H47.76V130.35h404.47V369.65z M79.43,208.4h12.29l0.39,14.3
	c4.59-5.51,9.11-9.51,13.57-11.98c4.46-2.47,8.95-3.71,13.49-3.71c8.04,0,14.13,2.6,18.28,7.81c4.15,5.21,6.07,12.93,5.76,23.19
	h-13.6c0.15-6.8-0.84-11.74-2.98-14.8c-2.14-3.07-5.27-4.6-9.39-4.6c-1.8,0-3.62,0.32-5.45,0.97c-1.83,0.65-3.71,1.68-5.64,3.09
	c-1.93,1.42-3.98,3.23-6.14,5.45c-2.16,2.22-4.48,4.9-6.96,8.04V286h-13.6V208.4z M228.84,243.1c0,1.91-0.03,3.5-0.08,4.79
	c-0.05,1.29-0.13,2.5-0.23,3.63h-54.49c0,7.94,2.21,14.03,6.65,18.28s10.82,6.38,19.17,6.38c2.27,0,4.53-0.09,6.8-0.27
	c2.27-0.18,4.46-0.42,6.57-0.73c2.11-0.31,4.14-0.66,6.07-1.04c1.93-0.39,3.72-0.81,5.37-1.28v11.05
	c-3.66,1.03-7.79,1.87-12.41,2.51c-4.61,0.64-9.39,0.97-14.34,0.97c-6.65,0-12.37-0.9-17.16-2.71c-4.79-1.8-8.72-4.42-11.79-7.84
	c-3.07-3.43-5.33-7.63-6.8-12.6c-1.47-4.97-2.2-10.6-2.2-16.89c0-5.46,0.79-10.63,2.36-15.5c1.57-4.87,3.86-9.15,6.88-12.83
	c3.01-3.68,6.71-6.61,11.09-8.77c4.38-2.16,9.35-3.25,14.92-3.25c5.41,0,10.2,0.85,14.38,2.55c4.17,1.7,7.69,4.11,10.55,7.23
	c2.86,3.12,5.02,6.91,6.49,11.36S228.84,237.59,228.84,243.1z M214.85,241.17c0.16-3.45-0.18-6.61-1-9.47
	c-0.82-2.86-2.1-5.32-3.83-7.38c-1.73-2.06-3.88-3.67-6.45-4.83c-2.58-1.16-5.57-1.74-8.97-1.74c-2.94,0-5.62,0.57-8.04,1.7
	c-2.42,1.13-4.51,2.73-6.26,4.79c-1.75,2.06-3.17,4.54-4.25,7.42c-1.08,2.89-1.75,6.06-2.01,9.51H214.85z M310.62,283.14
	c-3.5,1.34-7.1,2.33-10.78,2.98c-3.68,0.64-7.49,0.97-11.4,0.97c-12.26,0-21.71-3.32-28.33-9.97c-6.62-6.65-9.93-16.36-9.93-29.14
	c0-6.13,0.95-11.7,2.86-16.7c1.91-5,4.59-9.28,8.04-12.83c3.45-3.56,7.57-6.3,12.37-8.23c4.79-1.93,10.07-2.9,15.85-2.9
	c4.02,0,7.78,0.28,11.29,0.85c3.5,0.57,6.85,1.5,10.05,2.78v12.83c-3.35-1.75-6.76-3.03-10.24-3.83c-3.48-0.8-7.07-1.2-10.78-1.2
	c-3.45,0-6.71,0.66-9.78,1.97c-3.07,1.31-5.76,3.21-8.08,5.68c-2.32,2.47-4.15,5.49-5.49,9.04c-1.34,3.56-2.01,7.58-2.01,12.06
	c0,9.38,2.28,16.4,6.84,21.06c4.56,4.66,10.89,7,18.98,7c3.66,0,7.2-0.41,10.63-1.24c3.43-0.82,6.74-2.06,9.93-3.71V283.14z
	 M424.92,250c0,21.67-17.57,39.24-39.24,39.24c-21.67,0-39.24-17.57-39.24-39.24s17.57-39.24,39.24-39.24
	C407.35,210.76,424.92,228.33,424.92,250z"/>
</svg>
